<?xml version="1.0" encoding="utf-8"?>
<!-- Generator: Adobe Illustrator 26.0.3, SVG Export Plug-In . SVG Version: 6.00 Build 0)  -->
<svg version="1.1" id="Layer_1" xmlns="http://www.w3.org/2000/svg" xmlns:xlink="http://www.w3.org/1999/xlink" x="0px" y="0px"
	 viewBox="0 0 80 80" enable-background="new 0 0 80 80" xml:space="preserve">
<g>
	<g>
		<path d="M78.7,1.3v77.3H1.3V1.3H78.7"/>
	</g>
	<g>
		<g>
			<path fill="#FFFFFF" d="M17.3,52v1.3l1.7,0.4c0.5,0.1,11.1,2.4,21,2.4c11.1,0,20.6-2.3,21-2.4l1.7-0.5V52V38.5
				C68,37.7,68,31.9,68,28.3c0-0.7-0.3-1.3-0.8-1.8c-0.7-0.7-2-1.1-3.7-1.2c-0.3,0-0.6,0-0.8,0v-6.5c0-3.1-3-5.4-9-6.7
				c-5.5-1.2-11.8-1.3-13.6-1.3c-1.8,0-8.1,0.1-13.6,1.3c-6,1.3-9,3.6-9,6.7v6.5c-0.3,0-0.5,0-0.8,0c-1.8,0.1-3,0.5-3.7,1.2
				C12.3,27,12,27.7,12,28.3c0,3.6,0,9.3,5.3,10.2V52z M24,50.7c-1.5,0-2.7-1.2-2.7-2.7c0-1.5,1.2-2.7,2.7-2.7
				c1.5,0,2.7,1.2,2.7,2.7C26.7,49.5,25.5,50.7,24,50.7z M56,50.7c-1.5,0-2.7-1.2-2.7-2.7c0-1.5,1.2-2.7,2.7-2.7
				c1.5,0,2.7,1.2,2.7,2.7C58.7,49.5,57.5,50.7,56,50.7z M32,14.7h16c0.7,0,1.3,0.6,1.3,1.3c0,0.7-0.6,1.3-1.3,1.3H32
				c-0.7,0-1.3-0.6-1.3-1.3C30.7,15.3,31.3,14.7,32,14.7z M20,21.3h40c0,0,0,0,0,0c0,0.2,0,0.4,0,0.5v15.2c0,1.8-2.2,4.2-3.9,4.2H24
				c-1.7,0-4-2.3-4-4.1V21.9l0-0.2C20,21.6,20,21.5,20,21.3z"/>
			<path fill="#FFFFFF" d="M61.7,56.3C61.7,56.3,61.7,56.3,61.7,56.3c-0.4,0.1-10,2.5-21.7,2.5c-10.4,0-21.2-2.3-21.6-2.4
				c0,0,0,0,0,0l-1-0.3v5.3c0,0.7,0.6,1.3,1.3,1.3H20v4c0,1.5,1.1,2.7,2.5,2.7h3c1.4,0,2.5-1.2,2.5-2.7v-4h24v4
				c0,1.5,1.1,2.7,2.5,2.7h3c1.4,0,2.5-1.2,2.5-2.7v-4h1.3c0.7,0,1.3-0.6,1.3-1.3V56v0L61.7,56.3z"/>
		</g>
	</g>
</g>
</svg>
