<?xml version="1.0" encoding="utf-8"?>
<!-- Generator: Adobe Illustrator 27.9.0, SVG Export Plug-In . SVG Version: 6.00 Build 0)  -->
<svg version="1.1" id="Layer_1" xmlns="http://www.w3.org/2000/svg" xmlns:xlink="http://www.w3.org/1999/xlink" x="0px" y="0px"
	 viewBox="0 0 88 88" style="enable-background:new 0 0 88 88;" xml:space="preserve">
<style type="text/css">
	.st0{fill:#FFFFFF;}
</style>
<g>
	<path class="st0" d="M88,44C88,19.7,68.3,0,44,0S0,19.7,0,44s19.7,44,44,44S88,68.3,88,44"/>
	<path d="M86.7,44C86.7,20.4,67.6,1.3,44,1.3S1.3,20.4,1.3,44S20.4,86.7,44,86.7S86.7,67.6,86.7,44"/>
	<g>
		<path class="st0" d="M43.3,10.6c0,1.3-1,2.3-2.3,2.3c-1.3,0-2.3-1-2.3-2.3c0-1.3,1-2.3,2.3-2.3C42.3,8.2,43.3,9.3,43.3,10.6z"/>
		<path class="st0" d="M44.7,10.6c0,1.3,1,2.3,2.3,2.3c1.3,0,2.3-1.1,2.3-2.3c0-1.3-1-2.3-2.3-2.3C45.7,8.2,44.7,9.3,44.7,10.6
			L44.7,10.6z"/>
		<path class="st0" d="M62.7,58.1c-0.3,0.1-8.3,2.2-18.6,2.2c-9.1,0-18.2-2.1-18.6-2.1l-0.1,0v0.3c0,0.7,0.4,1.6,0.9,2.1l3.1,3
			c0.5,0.5,1.4,0.8,2.1,0.8h25.4c0.6,0,1.5-0.3,2-0.7l3-2.5c0.5-0.5,1-1.4,1-2.1L62.7,58.1L62.7,58.1L62.7,58.1z"/>
		<path class="st0" d="M61.3,72.9c0.2,0.3,0.7,0.5,1,0.5h1.9c0.4,0,0.5-0.2,0.3-0.5L59.7,66c-0.2-0.3-0.7-0.5-1-0.5h-2
			c-0.4,0-0.5,0.2-0.3,0.5l1.2,1.7c0.2,0.3,0.1,0.5-0.3,0.5H30.7c-0.4,0-0.5-0.2-0.3-0.5l1.2-1.7c0.2-0.3,0.1-0.5-0.3-0.5h-2
			c-0.4,0-0.8,0.2-1,0.5l-4.9,6.9c-0.2,0.3-0.1,0.5,0.3,0.5h1.9c0.4,0,0.8-0.2,1-0.5l1.1-1.5c0.2-0.3,0.7-0.5,1-0.5h30.3
			c0.4,0,0.8,0.2,1,0.5L61.3,72.9L61.3,72.9z"/>
		<path class="st0" d="M25.4,55.3v-8.9l0,0V22.9c0-3.8,3.8-5.7,7-6.6c4.1-1.2,9.1-1.3,11.7-1.3s7.6,0.2,11.6,1.3
			c3.2,0.9,7,2.8,7.1,6.6v23.9l0,0v8.5l-0.9,0.2c-0.1,0-7.9,2.1-17.8,2.1c-8.8,0-17.9-2.1-18-2.1L25.4,55.3L25.4,55.3z M32,46.9
			c-1.5,0-2.7,1.2-2.7,2.7c0,1.5,1.2,2.7,2.7,2.7c1.5,0,2.7-1.2,2.7-2.7C34.7,48.1,33.5,46.9,32,46.9L32,46.9z M53.3,49.6
			c0,1.5,1.2,2.7,2.7,2.7c1.5,0,2.7-1.2,2.7-2.7c0-1.5-1.2-2.7-2.7-2.7C54.5,46.9,53.3,48.1,53.3,49.6L53.3,49.6z M58.5,38.3V27.9
			c0-0.1,0-0.2,0-0.2c0-0.4,0-1.1-0.5-1.6c-0.2-0.2-0.6-0.5-1.3-0.5H31.1c-0.7,0-1.1,0.3-1.3,0.5c-0.6,0.6-0.6,1.3-0.5,1.8v10.6
			c0,2.1,2.2,4.4,4.3,4.4h20.7C56.3,42.7,58.5,40.4,58.5,38.3L58.5,38.3z M50.4,18.8H37.6c-0.7,0-1.3,0.5-1.4,1.3
			c0,0.7,0.6,1.3,1.3,1.3h13c0.7,0,1.3-0.6,1.3-1.3C51.8,19.4,51.1,18.8,50.4,18.8L50.4,18.8z"/>
	</g>
</g>
</svg>
