<?xml version="1.0" encoding="utf-8"?>
<!-- Generator: Adobe Illustrator 26.5.0, SVG Export Plug-In . SVG Version: 6.00 Build 0)  -->
<svg version="1.1" id="Layer_1" xmlns="http://www.w3.org/2000/svg" xmlns:xlink="http://www.w3.org/1999/xlink" x="0px" y="0px"
	 viewBox="0 0 417.6 417.6" style="enable-background:new 0 0 417.6 417.6;" xml:space="preserve">
<g id="Layer_2_00000023993568279598596950000013857681539784050078_">
	<g id="Layer_1-2">
		<path d="M205.2,41.4c0,7-5.6,12.6-12.6,12.6S180,48.4,180,41.4c0-7,5.6-12.6,12.6-12.6c0,0,0,0,0,0
			C199.5,28.8,205.2,34.4,205.2,41.4z"/>
		<path d="M212.4,41.4c0,7,5.7,12.6,12.6,12.6s12.6-5.7,12.6-12.6c0-7-5.7-12.6-12.6-12.6c0,0,0,0,0,0
			C218,28.8,212.4,34.5,212.4,41.4z"/>
		<path d="M309.1,298c-1.8,0.5-44.5,11.6-100,11.6c-49.3,0-98.3-11.1-100.4-11.6l-0.7-0.2v1.4c0.1,4.2,1.8,8.2,4.7,11.3l16.5,16.1
			c3.1,2.8,7,4.5,11.2,4.6h136.8c4-0.1,7.9-1.5,11-4l16-13.4c3.3-2.9,5.2-7.1,5.4-11.4v-4.6L309.1,298z"/>
		<path d="M302.4,378.7c1.4,1.7,3.5,2.8,5.7,2.9h10.5c2,0,2.7-1.3,1.5-2.9l-26.7-37.3c-1.4-1.7-3.5-2.8-5.7-2.9h-10.5
			c-2,0-2.6,1.3-1.5,2.9l6.2,8.6c1.2,1.6,0.5,2.9-1.5,2.9H137.2c-2,0-2.6-1.3-1.5-2.9l6.2-8.6c1.2-1.6,0.5-2.9-1.5-2.9h-10.5
			c-2.2,0.1-4.3,1.2-5.7,2.9l-26.7,37.3c-1.1,1.6-0.5,2.9,1.5,2.9h10.5c2.2-0.1,4.3-1.2,5.7-2.9l6.2-8.7c1.4-1.7,3.5-2.8,5.7-2.9
			h163.3c2.2,0.1,4.3,1.2,5.7,2.9L302.4,378.7z"/>
		<path d="M108,283.1v-47.6l0,0V107.8c0-20.8,20.7-30.9,38-35.8c22.2-6.3,49.2-7.2,63.3-7.2s40.8,0.9,62.8,7.2
			c17.1,4.9,37.5,15.1,37.5,35.8v129.8l0,0v45.3l-4.1,1.1c-0.4,0.1-42.7,11.2-96.3,11.2c-47.6,0-96.7-11.1-97.2-11.2L108,283.1z
			 M144,237.6c-8,0-14.4,6.5-14.4,14.4s6.5,14.4,14.4,14.4c8,0,14.4-6.5,14.4-14.4c0,0,0,0,0,0C158.4,244,151.9,237.6,144,237.6z
			 M259.2,252c0,8,6.5,14.4,14.4,14.4c8,0,14.4-6.5,14.4-14.4c0-8-6.5-14.4-14.4-14.4C265.6,237.6,259.2,244.1,259.2,252L259.2,252z
			 M287.7,191.3v-56c0-0.4,0-0.9,0-1.3c0.1-2.2,0.3-5.9-2.5-8.9c-1.9-1.9-4.4-2.9-7.1-2.8H139.7c-2.7-0.1-5.3,0.9-7.2,2.8
			c-3,3-3,6.8-3,9.6v57.1c0,11.4,12.1,23.6,23.4,23.6h111.8C276,215.5,287.7,203.1,287.7,191.3L287.7,191.3z M252,93.6
			c0-4-3.2-7.2-7.2-7.2h-72c-4,0-7.2,3.2-7.2,7.2c0,4,3.2,7.2,7.2,7.2c0,0,0,0,0,0h72C248.8,100.8,252,97.6,252,93.6z"/>
	</g>
</g>
</svg>
